# xmcd CD database file
#
# Track frame offsets:
#	150
#	95029
#	219087
#
# Disc length: 3704 seconds
#
# Revision: 0
# Processed by: cddbd v1.5.2PL0 Copyright (c) Steve Scherf et al.
# Submitted via: CDex 1.51
#
DISCID=200e7603
DTITLE=Haral Juengst - My Green Heartbeet CD02
DYEAR=2008
DGENRE=Hoerbuch
TTITLE0=The Hole in The Wall
TTITLE1=A Cradle of Waves
TTITLE2=Hitchhikers Guide to Superstition
EXTD=YEAR: 2008
EXTT0=
EXTT1=
EXTT2=
PLAYORDER=
